<?xml version="1.0" encoding="UTF-8"?>
<svg version="1.1" viewBox="0 0 326 217" xmlns="http://www.w3.org/2000/svg" width="326" height="217">
<rect width="326" height="217" fill="#fff"/>
<rect width="326" height="73" fill="#ffce00"/>
<rect y="144" width="326" height="73" fill="#009431"/>
<rect y="182" width="326" height="35"/>
<rect width="326" height="35" fill="#f00"/>
<path d="m163 76c-2.0711 0-3.75 1.6789-3.75 3.75s1.6789 3.75 3.75 3.75 3.75-1.6789 3.75-3.75-1.6789-3.75-3.75-3.75zm-16.531 3.25c2.3771 6.8433 8.8785 11.75 16.531 11.75s14.154-4.9067 16.531-11.75c-4.4061 3.8855-10.195 6.25-16.531 6.25s-12.125-2.3645-16.531-6.25zm-0.96875 13c-2.0711 0-3.75 1.6789-3.75 3.75s1.6789 3.75 3.75 3.75 3.75-1.6789 3.75-3.75-1.6789-3.75-3.75-3.75zm17.5 0c-2.0711 0-3.75 1.6789-3.75 3.75s1.6789 3.75 3.75 3.75 3.75-1.6789 3.75-3.75-1.6789-3.75-3.75-3.75zm17.5 0c-2.0711 0-3.75 1.6789-3.75 3.75s1.6789 3.75 3.75 3.75 3.75-1.6789 3.75-3.75-1.6789-3.75-3.75-3.75z" fill="#ff6331"/>
<path d="m142.5 104v23h10 7v6h-16v8h16 8 1v-14h5v14h10v-23h-15v-6h15v-8h-15-9v8 6h-7v-14h-10z" fill="#ff6331"/>
</svg>
